<mxfile host="app.diagrams.net" agent="Mozilla/5.0 (X11; Linux x86_64; rv:128.0) Gecko/20100101 Firefox/128.0" version="28.1.0">
  <diagram name="Page-1" id="oGDf3g9xUznbENGGHhZk">
    <mxGraphModel dx="1426" dy="760" grid="1" gridSize="10" guides="1" tooltips="1" connect="1" arrows="1" fold="1" page="1" pageScale="1" pageWidth="850" pageHeight="1100" math="0" shadow="0">
      <root>
        <mxCell id="0" />
        <mxCell id="1" parent="0" />
        <mxCell id="t5JIWIzSIm8P3-KhSei2-1" value="&lt;div&gt;&lt;font style=&quot;font-size: 20px;&quot;&gt;Stormshadow&lt;/font&gt;&lt;/div&gt;" style="rounded=1;whiteSpace=wrap;html=1;" vertex="1" parent="1">
          <mxGeometry x="290" y="40" width="240" height="120" as="geometry" />
        </mxCell>
        <mxCell id="t5JIWIzSIm8P3-KhSei2-3" value="" style="endArrow=classic;html=1;rounded=0;exitX=0.142;exitY=1.033;exitDx=0;exitDy=0;exitPerimeter=0;" edge="1" parent="1" source="t5JIWIzSIm8P3-KhSei2-1" target="t5JIWIzSIm8P3-KhSei2-4">
          <mxGeometry width="50" height="50" relative="1" as="geometry">
            <mxPoint x="400" y="300" as="sourcePoint" />
            <mxPoint x="270" y="260" as="targetPoint" />
          </mxGeometry>
        </mxCell>
        <mxCell id="t5JIWIzSIm8P3-KhSei2-6" value="&lt;font style=&quot;font-size: 20px;&quot;&gt;orchestrate&lt;/font&gt;" style="edgeLabel;html=1;align=center;verticalAlign=middle;resizable=0;points=[];" vertex="1" connectable="0" parent="t5JIWIzSIm8P3-KhSei2-3">
          <mxGeometry x="-0.0091" y="-4" relative="1" as="geometry">
            <mxPoint as="offset" />
          </mxGeometry>
        </mxCell>
        <mxCell id="t5JIWIzSIm8P3-KhSei2-4" value="Lab Manager" style="ellipse;whiteSpace=wrap;html=1;fontSize=14;" vertex="1" parent="1">
          <mxGeometry x="100" y="260" width="120" height="80" as="geometry" />
        </mxCell>
        <mxCell id="t5JIWIzSIm8P3-KhSei2-5" value="Attack Manager" style="ellipse;whiteSpace=wrap;html=1;fontSize=15;" vertex="1" parent="1">
          <mxGeometry x="560" y="240" width="120" height="80" as="geometry" />
        </mxCell>
        <mxCell id="t5JIWIzSIm8P3-KhSei2-7" value="" style="endArrow=classic;html=1;rounded=0;exitX=0.821;exitY=1.017;exitDx=0;exitDy=0;exitPerimeter=0;entryX=0.5;entryY=0;entryDx=0;entryDy=0;" edge="1" parent="1" source="t5JIWIzSIm8P3-KhSei2-1" target="t5JIWIzSIm8P3-KhSei2-5">
          <mxGeometry width="50" height="50" relative="1" as="geometry">
            <mxPoint x="426" y="180" as="sourcePoint" />
            <mxPoint x="300" y="285" as="targetPoint" />
          </mxGeometry>
        </mxCell>
        <mxCell id="t5JIWIzSIm8P3-KhSei2-8" value="&lt;font style=&quot;font-size: 20px;&quot;&gt;orchestrate&lt;/font&gt;" style="edgeLabel;html=1;align=center;verticalAlign=middle;resizable=0;points=[];" vertex="1" connectable="0" parent="t5JIWIzSIm8P3-KhSei2-7">
          <mxGeometry x="-0.0091" y="-4" relative="1" as="geometry">
            <mxPoint as="offset" />
          </mxGeometry>
        </mxCell>
        <mxCell id="t5JIWIzSIm8P3-KhSei2-9" value="Attack Session" style="whiteSpace=wrap;html=1;aspect=fixed;fontSize=17;" vertex="1" parent="1">
          <mxGeometry x="580" y="410" width="100" height="100" as="geometry" />
        </mxCell>
        <mxCell id="t5JIWIzSIm8P3-KhSei2-16" value="" style="endArrow=classic;html=1;rounded=0;exitX=0.567;exitY=1;exitDx=0;exitDy=0;exitPerimeter=0;" edge="1" parent="1" source="t5JIWIzSIm8P3-KhSei2-5" target="t5JIWIzSIm8P3-KhSei2-9">
          <mxGeometry width="50" height="50" relative="1" as="geometry">
            <mxPoint x="620" y="320" as="sourcePoint" />
            <mxPoint x="630" y="410" as="targetPoint" />
          </mxGeometry>
        </mxCell>
        <mxCell id="t5JIWIzSIm8P3-KhSei2-17" value="&lt;font style=&quot;font-size: 20px;&quot;&gt;create&lt;/font&gt;" style="edgeLabel;html=1;align=center;verticalAlign=middle;resizable=0;points=[];" vertex="1" connectable="0" parent="t5JIWIzSIm8P3-KhSei2-16">
          <mxGeometry x="-0.0091" y="-4" relative="1" as="geometry">
            <mxPoint as="offset" />
          </mxGeometry>
        </mxCell>
        <mxCell id="t5JIWIzSIm8P3-KhSei2-20" value="" style="endArrow=classic;html=1;rounded=0;exitX=0.567;exitY=1;exitDx=0;exitDy=0;exitPerimeter=0;entryX=0.5;entryY=0;entryDx=0;entryDy=0;" edge="1" parent="1" target="t5JIWIzSIm8P3-KhSei2-23">
          <mxGeometry width="50" height="50" relative="1" as="geometry">
            <mxPoint x="629.5" y="510" as="sourcePoint" />
            <mxPoint x="630.5" y="600" as="targetPoint" />
          </mxGeometry>
        </mxCell>
        <mxCell id="t5JIWIzSIm8P3-KhSei2-21" value="&lt;font style=&quot;font-size: 20px;&quot;&gt;Manage life of&lt;br&gt;&lt;/font&gt;" style="edgeLabel;html=1;align=center;verticalAlign=middle;resizable=0;points=[];" vertex="1" connectable="0" parent="t5JIWIzSIm8P3-KhSei2-20">
          <mxGeometry x="-0.0091" y="-4" relative="1" as="geometry">
            <mxPoint as="offset" />
          </mxGeometry>
        </mxCell>
        <mxCell id="t5JIWIzSIm8P3-KhSei2-23" value="&lt;font style=&quot;font-size: 13px;&quot;&gt;&lt;font style=&quot;font-size: 14px;&quot;&gt;Attack Module&lt;/font&gt;&lt;br&gt;&lt;/font&gt;" style="ellipse;whiteSpace=wrap;html=1;aspect=fixed;" vertex="1" parent="1">
          <mxGeometry x="590" y="600" width="80" height="80" as="geometry" />
        </mxCell>
        <mxCell id="t5JIWIzSIm8P3-KhSei2-27" value="" style="endArrow=classic;html=1;rounded=0;exitX=0.567;exitY=1;exitDx=0;exitDy=0;exitPerimeter=0;entryX=0.5;entryY=0;entryDx=0;entryDy=0;" edge="1" parent="1" target="t5JIWIzSIm8P3-KhSei2-29">
          <mxGeometry width="50" height="50" relative="1" as="geometry">
            <mxPoint x="159.5" y="340" as="sourcePoint" />
            <mxPoint x="160.5" y="430" as="targetPoint" />
          </mxGeometry>
        </mxCell>
        <mxCell id="t5JIWIzSIm8P3-KhSei2-28" value="&lt;font style=&quot;font-size: 20px;&quot;&gt;Manage life of&lt;br&gt;&lt;/font&gt;" style="edgeLabel;html=1;align=center;verticalAlign=middle;resizable=0;points=[];" vertex="1" connectable="0" parent="t5JIWIzSIm8P3-KhSei2-27">
          <mxGeometry x="-0.0091" y="-4" relative="1" as="geometry">
            <mxPoint as="offset" />
          </mxGeometry>
        </mxCell>
        <mxCell id="t5JIWIzSIm8P3-KhSei2-29" value="&lt;font style=&quot;font-size: 13px;&quot;&gt;&lt;font style=&quot;font-size: 14px;&quot;&gt;Asterik Server on Docker&lt;/font&gt;&lt;br&gt;&lt;/font&gt;" style="ellipse;whiteSpace=wrap;html=1;aspect=fixed;" vertex="1" parent="1">
          <mxGeometry x="120" y="430" width="80" height="80" as="geometry" />
        </mxCell>
        <mxCell id="t5JIWIzSIm8P3-KhSei2-30" value="&lt;ul&gt;&lt;li&gt;&lt;font&gt;Check the configuration, resolve auto-config&lt;/font&gt;&lt;/li&gt;&lt;li&gt;&lt;font&gt;Ask for cleanup when quitting&lt;/font&gt;&lt;/li&gt;&lt;li&gt;&lt;font&gt;Orchestrator of the behavior&lt;br&gt;&lt;/font&gt;&lt;/li&gt;&lt;/ul&gt;" style="text;html=1;align=left;verticalAlign=middle;whiteSpace=wrap;rounded=0;fontSize=14;" vertex="1" parent="1">
          <mxGeometry x="530" y="50" width="250" height="100" as="geometry" />
        </mxCell>
        <mxCell id="t5JIWIzSIm8P3-KhSei2-31" value="&lt;ul&gt;&lt;li&gt;Apply the configuration&lt;/li&gt;&lt;li&gt;Load the attacks modules&lt;/li&gt;&lt;/ul&gt;" style="text;html=1;align=left;verticalAlign=middle;whiteSpace=wrap;rounded=0;fontSize=14;" vertex="1" parent="1">
          <mxGeometry x="670" y="230" width="170" height="100" as="geometry" />
        </mxCell>
        <mxCell id="t5JIWIzSIm8P3-KhSei2-33" value="" style="endArrow=classic;html=1;rounded=0;exitX=0;exitY=0.5;exitDx=0;exitDy=0;" edge="1" parent="1" source="t5JIWIzSIm8P3-KhSei2-23" target="t5JIWIzSIm8P3-KhSei2-35">
          <mxGeometry width="50" height="50" relative="1" as="geometry">
            <mxPoint x="500" y="590" as="sourcePoint" />
            <mxPoint x="530" y="700" as="targetPoint" />
          </mxGeometry>
        </mxCell>
        <mxCell id="t5JIWIzSIm8P3-KhSei2-34" value="&lt;font&gt;Implement&lt;font&gt;&lt;br&gt;&lt;/font&gt;&lt;/font&gt;" style="edgeLabel;html=1;align=center;verticalAlign=middle;resizable=0;points=[];fontSize=14;" vertex="1" connectable="0" parent="t5JIWIzSIm8P3-KhSei2-33">
          <mxGeometry x="-0.0091" y="-4" relative="1" as="geometry">
            <mxPoint x="-8" y="11" as="offset" />
          </mxGeometry>
        </mxCell>
        <mxCell id="t5JIWIzSIm8P3-KhSei2-35" value="&lt;font style=&quot;font-size: 14px;&quot;&gt;AttackInterface&lt;/font&gt;" style="rounded=0;whiteSpace=wrap;html=1;" vertex="1" parent="1">
          <mxGeometry x="330" y="610" width="120" height="60" as="geometry" />
        </mxCell>
        <mxCell id="t5JIWIzSIm8P3-KhSei2-36" value="&lt;ul&gt;&lt;li align=&quot;left&quot;&gt;Build the attack&lt;/li&gt;&lt;li align=&quot;left&quot;&gt;Check what features are implanted (dry run, spoofing, etc)&lt;/li&gt;&lt;li align=&quot;left&quot;&gt;Start and stop the attack features&lt;/li&gt;&lt;/ul&gt;" style="text;html=1;align=left;verticalAlign=middle;whiteSpace=wrap;rounded=0;fontSize=14;" vertex="1" parent="1">
          <mxGeometry x="670" y="410" width="170" height="100" as="geometry" />
        </mxCell>
        <mxCell id="t5JIWIzSIm8P3-KhSei2-37" value="&lt;ul&gt;&lt;li align=&quot;left&quot;&gt;Chosen attack&lt;/li&gt;&lt;li align=&quot;left&quot;&gt;Can do its own spoofing&lt;/li&gt;&lt;li align=&quot;left&quot;&gt;Can implemant dry_run&lt;/li&gt;&lt;li align=&quot;left&quot;&gt;Follows AttackInterface&lt;br&gt;&lt;/li&gt;&lt;/ul&gt;" style="text;html=1;align=left;verticalAlign=middle;whiteSpace=wrap;rounded=0;fontSize=14;" vertex="1" parent="1">
          <mxGeometry x="650" y="580" width="190" height="120" as="geometry" />
        </mxCell>
        <mxCell id="t5JIWIzSIm8P3-KhSei2-39" value="" style="endArrow=classic;html=1;rounded=0;exitX=0.567;exitY=1;exitDx=0;exitDy=0;exitPerimeter=0;entryX=0.5;entryY=0;entryDx=0;entryDy=0;" edge="1" parent="1" target="t5JIWIzSIm8P3-KhSei2-42">
          <mxGeometry width="50" height="50" relative="1" as="geometry">
            <mxPoint x="629.5" y="680" as="sourcePoint" />
            <mxPoint x="630.5" y="770" as="targetPoint" />
          </mxGeometry>
        </mxCell>
        <mxCell id="t5JIWIzSIm8P3-KhSei2-40" value="&lt;font style=&quot;font-size: 20px;&quot;&gt;Use&lt;/font&gt;" style="edgeLabel;html=1;align=center;verticalAlign=middle;resizable=0;points=[];" vertex="1" connectable="0" parent="t5JIWIzSIm8P3-KhSei2-39">
          <mxGeometry x="-0.0091" y="-4" relative="1" as="geometry">
            <mxPoint as="offset" />
          </mxGeometry>
        </mxCell>
        <mxCell id="t5JIWIzSIm8P3-KhSei2-42" value="UDP SPOOFER" style="rhombus;whiteSpace=wrap;html=1;" vertex="1" parent="1">
          <mxGeometry x="575" y="730" width="110" height="110" as="geometry" />
        </mxCell>
      </root>
    </mxGraphModel>
  </diagram>
</mxfile>
